<svg xmlns="http://www.w3.org/2000/svg" width="205.11" height="35" viewBox="0 0 205.11 35"><rect class="svg__rect" x="0" y="0" width="101.91" height="35" fill="#009AFF" data-darkreader-inline-fill="" style="--darkreader-inline-fill:#007bcc;"/><rect class="svg__rect" x="99.91" y="0" width="105.20000000000002" height="35" fill="#7D00CC" data-darkreader-inline-fill="" style="--darkreader-inline-fill:#7105b6;"/><path class="svg__text" d="M13.61 19.57L13.61 19.57L15.09 19.57Q15.09 20.25 15.43 20.59Q15.76 20.93 16.40 20.93L16.40 20.93Q17.00 20.93 17.35 20.54Q17.71 20.14 17.71 19.45L17.71 19.45L17.71 13.47L19.19 13.47L19.19 19.45Q19.19 20.68 18.42 21.40Q17.66 22.12 16.40 22.12L16.40 22.12Q15.07 22.12 14.34 21.44Q13.61 20.77 13.61 19.57ZM23.60 18.00L23.60 18.00L23.60 17.52Q23.60 16.28 24.04 15.32Q24.48 14.37 25.29 13.86Q26.09 13.35 27.14 13.35Q28.18 13.35 28.99 13.85Q29.79 14.35 30.23 15.29Q30.67 16.23 30.68 17.48L30.68 17.48L30.68 17.96Q30.68 19.21 30.24 20.16Q29.81 21.10 29.00 21.61Q28.20 22.12 27.15 22.12L27.15 22.12Q26.11 22.12 25.30 21.61Q24.49 21.10 24.05 20.17Q23.60 19.23 23.60 18.00ZM25.08 17.46L25.08 17.96Q25.08 19.36 25.63 20.13Q26.18 20.90 27.15 20.90L27.15 20.90Q28.13 20.90 28.66 20.15Q29.19 19.40 29.19 17.96L29.19 17.96L29.19 17.51Q29.19 16.09 28.66 15.34Q28.12 14.58 27.14 14.58L27.14 14.58Q26.18 14.58 25.63 15.33Q25.09 16.09 25.08 17.46L25.08 17.46ZM36.71 22L35.23 22L35.23 13.47L36.71 13.47L36.71 22ZM43.00 22L41.52 22L41.52 13.47L43.00 13.47L46.81 19.54L46.81 13.47L48.28 13.47L48.28 22L46.80 22L43.00 15.95L43.00 22ZM58.73 18.00L58.73 18.00L58.73 17.52Q58.73 16.28 59.17 15.32Q59.62 14.37 60.42 13.86Q61.23 13.35 62.27 13.35Q63.31 13.35 64.12 13.85Q64.92 14.35 65.36 15.29Q65.80 16.23 65.81 17.48L65.81 17.48L65.81 17.96Q65.81 19.21 65.38 20.16Q64.94 21.10 64.14 21.61Q63.33 22.12 62.28 22.12L62.28 22.12Q61.24 22.12 60.43 21.61Q59.62 21.10 59.18 20.17Q58.74 19.23 58.73 18.00ZM60.21 17.46L60.21 17.96Q60.21 19.36 60.76 20.13Q61.31 20.90 62.28 20.90L62.28 20.90Q63.27 20.90 63.80 20.15Q64.33 19.40 64.33 17.96L64.33 17.96L64.33 17.51Q64.33 16.09 63.79 15.34Q63.25 14.58 62.27 14.58L62.27 14.58Q61.31 14.58 60.77 15.33Q60.23 16.09 60.21 17.46L60.21 17.46ZM70.14 19.16L70.14 19.16L70.14 13.47L71.62 13.47L71.62 19.18Q71.62 20.03 72.05 20.48Q72.48 20.93 73.33 20.93L73.33 20.93Q75.04 20.93 75.04 19.13L75.04 19.13L75.04 13.47L76.51 13.47L76.51 19.17Q76.51 20.53 75.64 21.32Q74.77 22.12 73.33 22.12L73.33 22.12Q71.86 22.12 71.00 21.33Q70.14 20.55 70.14 19.16ZM82.57 22L81.08 22L81.08 13.47L84.08 13.47Q85.56 13.47 86.36 14.13Q87.17 14.79 87.17 16.05L87.17 16.05Q87.17 16.90 86.75 17.48Q86.34 18.06 85.60 18.37L85.60 18.37L87.52 21.92L87.52 22L85.93 22L84.22 18.71L82.57 18.71L82.57 22ZM82.57 14.66L82.57 17.52L84.09 17.52Q84.84 17.52 85.26 17.15Q85.68 16.77 85.68 16.11L85.68 16.11Q85.68 15.43 85.29 15.05Q84.90 14.68 84.13 14.66L84.13 14.66L82.57 14.66Z" fill="#FFFFFF" data-darkreader-inline-fill="" style="--darkreader-inline-fill:#181a1b;"/><path class="svg__text" d="M118.07 22L114.10 22L114.10 13.60L118.07 13.60Q119.45 13.60 120.52 14.12Q121.59 14.63 122.18 15.58Q122.76 16.53 122.76 17.80L122.76 17.80Q122.76 19.07 122.18 20.02Q121.59 20.97 120.52 21.48Q119.45 22 118.07 22L118.07 22ZM116.48 15.50L116.48 20.10L117.98 20.10Q119.05 20.10 119.71 19.49Q120.36 18.88 120.36 17.80L120.36 17.80Q120.36 16.72 119.71 16.11Q119.05 15.50 117.98 15.50L117.98 15.50L116.48 15.50ZM129.87 22L127.49 22L127.49 13.60L129.87 13.60L129.87 22ZM134.46 21.24L134.46 21.24L135.24 19.49Q135.80 19.86 136.55 20.09Q137.29 20.32 138.01 20.32L138.01 20.32Q139.38 20.32 139.38 19.64L139.38 19.64Q139.38 19.28 138.99 19.11Q138.60 18.93 137.73 18.74L137.73 18.74Q136.79 18.53 136.15 18.30Q135.51 18.06 135.06 17.55Q134.61 17.03 134.61 16.16L134.61 16.16Q134.61 15.39 135.02 14.77Q135.44 14.15 136.28 13.79Q137.11 13.43 138.32 13.43L138.32 13.43Q139.15 13.43 139.95 13.62Q140.76 13.80 141.37 14.17L141.37 14.17L140.64 15.93Q139.44 15.28 138.31 15.28L138.31 15.28Q137.60 15.28 137.28 15.49Q136.96 15.70 136.96 16.04L136.96 16.04Q136.96 16.37 137.34 16.54Q137.72 16.71 138.57 16.89L138.57 16.89Q139.53 17.10 140.16 17.33Q140.79 17.56 141.26 18.07Q141.72 18.58 141.72 19.46L141.72 19.46Q141.72 20.21 141.30 20.83Q140.88 21.44 140.04 21.80Q139.20 22.17 138.00 22.17L138.00 22.17Q136.98 22.17 136.02 21.92Q135.06 21.67 134.46 21.24ZM145.87 17.80L145.87 17.80Q145.87 16.54 146.47 15.54Q147.06 14.55 148.11 13.99Q149.17 13.43 150.48 13.43L150.48 13.43Q151.64 13.43 152.56 13.84Q153.48 14.25 154.10 15.02L154.10 15.02L152.59 16.39Q151.77 15.40 150.61 15.40L150.61 15.40Q149.92 15.40 149.39 15.70Q148.86 16 148.56 16.54Q148.26 17.09 148.26 17.80L148.26 17.80Q148.26 18.51 148.56 19.05Q148.86 19.60 149.39 19.90Q149.92 20.20 150.61 20.20L150.61 20.20Q151.77 20.20 152.59 19.22L152.59 19.22L154.10 20.58Q153.49 21.35 152.56 21.76Q151.64 22.17 150.48 22.17L150.48 22.17Q149.17 22.17 148.11 21.61Q147.06 21.05 146.47 20.05Q145.87 19.06 145.87 17.80ZM158.21 17.80L158.21 17.80Q158.21 16.55 158.81 15.55Q159.41 14.56 160.48 14.00Q161.54 13.43 162.87 13.43L162.87 13.43Q164.20 13.43 165.26 14.00Q166.33 14.56 166.93 15.55Q167.54 16.55 167.54 17.80L167.54 17.80Q167.54 19.05 166.93 20.04Q166.33 21.04 165.27 21.60Q164.21 22.17 162.87 22.17L162.87 22.17Q161.54 22.17 160.48 21.60Q159.41 21.04 158.81 20.04Q158.21 19.05 158.21 17.80ZM160.60 17.80L160.60 17.80Q160.60 18.51 160.91 19.05Q161.21 19.60 161.72 19.90Q162.24 20.20 162.87 20.20L162.87 20.20Q163.51 20.20 164.03 19.90Q164.54 19.60 164.84 19.05Q165.14 18.51 165.14 17.80L165.14 17.80Q165.14 17.09 164.84 16.54Q164.54 16 164.03 15.70Q163.51 15.40 162.87 15.40L162.87 15.40Q162.23 15.40 161.72 15.70Q161.21 16 160.91 16.54Q160.60 17.09 160.60 17.80ZM174.65 22L172.27 22L172.27 13.60L176.11 13.60Q177.26 13.60 178.09 13.98Q178.93 14.35 179.39 15.06Q179.85 15.76 179.85 16.71L179.85 16.71Q179.85 17.62 179.42 18.30Q178.99 18.98 178.20 19.36L178.20 19.36L180.01 22L177.47 22L175.94 19.77L174.65 19.77L174.65 22ZM174.65 15.47L174.65 17.93L175.97 17.93Q176.70 17.93 177.07 17.61Q177.44 17.29 177.44 16.71L177.44 16.71Q177.44 16.12 177.07 15.79Q176.70 15.47 175.97 15.47L175.97 15.47L174.65 15.47ZM188.61 22L184.63 22L184.63 13.60L188.61 13.60Q189.99 13.60 191.05 14.12Q192.12 14.63 192.71 15.58Q193.30 16.53 193.30 17.80L193.30 17.80Q193.30 19.07 192.71 20.02Q192.12 20.97 191.05 21.48Q189.99 22 188.61 22L188.61 22ZM187.01 15.50L187.01 20.10L188.51 20.10Q189.59 20.10 190.24 19.49Q190.90 18.88 190.90 17.80L190.90 17.80Q190.90 16.72 190.24 16.11Q189.59 15.50 188.51 15.50L188.51 15.50L187.01 15.50Z" fill="#FFFFFF" x="112.91" data-darkreader-inline-fill="" style="--darkreader-inline-fill:#181a1b;"/></svg>